<svg xmlns="http://www.w3.org/2000/svg" xmlns:xlink="http://www.w3.org/1999/xlink" viewBox="0 0 277.66 383"><defs><style>.cls-1{fill:none;}.cls-2{fill:#c12121;}.cls-3{fill:#f9cdaf;}.cls-4{fill:#f9d6b7;}.cls-5{fill:#efb589;}.cls-6{fill:#86b8ea;}.cls-7{fill:#870707;}.cls-8{clip-path:url(#clip-path);}.cls-9{fill:#ba0658;}.cls-10{fill:#fff;}.cls-11{fill:#0c0c0c;}.cls-12{fill:#323335;}</style><clipPath id="clip-path" transform="translate(-208.32 -23)"><path class="cls-1" d="M293.07,165.76h45.68s-2.86,20-22.84,20S293.07,165.76,293.07,165.76Z"/></clipPath></defs><g id="Calque_3" data-name="Calque 3"><path class="cls-2" d="M410.13,137.21c-2.85-31.41-37.12-60-37.12-60s-17.13-17.13-11.42,11.42a37.79,37.79,0,0,0,2.89,8.57h-5.74l4.82,38.59c-5.92-4.11-7.28,10.82-7.59,17.88-6.14-1.55-11.51,9.2-11.51,9.2s.07,1.44.22,3.89l-11.6,10.6c0-.14,0-.22,0-.22l-14.28-.38-.57,1,.57-3.46-25.69-31.41-24.46-12.23-1.24-24.89-17.13-8.56-15.27,4,.82-12c-43,23.45-22.67,65.05-22.67,65.05,0-6.64,3-12,6.69-16-17,37.34-1,56-1,56-1.34-9.36,8-16.83,18.22-22.14-4.18,9.82-11.47,37.83,30.32,56.4a162.64,162.64,0,0,1-7.4-26.51c3,8.84,10.53,19.86,27.38,32.22l-5.71-28.55s8.57,28.55,17.14,34.26c0,0,3.64-16.46,2.17-26,2.73,6.56,7.31,16.48,9.25,14.54,0,0,1-6.09,1.83-11.62.85,4.4,2.08,7.86,3.88,8.76,0,0,7.9-6.32,10.76-14.27-.23,6.49.18,14.27,3.51,14.27a59.28,59.28,0,0,0,6.69-10.92c2,5.2,4.45,9.36,7.59,10.92a73.2,73.2,0,0,0,5.94-11.39c1.49,6.21,3.3,10.67,5.48,11.39A123.17,123.17,0,0,0,365,198.61c2.48,8.53,5.25,15.78,8,18.55,0,0,9.38-14.1,7.3-37.65,4.12,12.53,4.12,29.08,4.12,29.08,4.14-8.27,5.39-17.5,5.09-26.47,2,5.78,3.48,9.34,3.48,9.34,22.84-17.13,14-44.4,5.5-60.69A127.45,127.45,0,0,0,410.13,137.21ZM378.77,139v.05S378.77,139,378.77,139Z" transform="translate(-208.32 -23)"/><g id="Calque_9" data-name="Calque 9"><path class="cls-3" d="M321.4,214.1c-.75-8-1.8-21.4-.4-22.1,2-1-23-2-23-2s-.64,15.89-.39,24.36c-8,.74-21,2.86-11.61,8.64,13,8,40,4,40,4S338.78,218.14,321.4,214.1Z" transform="translate(-208.32 -23)"/></g><path class="cls-4" d="M378.72,128.64c-1.23-12.37-7.83-13.47-13.75-8.67-2.19-57-29.72-57-54.77-57-26.17,0-52.59,12.17-52.1,67.74-7.47-4.75-15.75-3.44-17,9.36-2.28,22.82,15.88,25.57,23.26,25.76,8.95,18.38,27.47,31.34,48.72,31.34,24.64,0,43.74-17.4,49.64-40.52C369.09,155.17,380.82,149.59,378.72,128.64Z" transform="translate(-208.32 -23)"/><path class="cls-2" d="M367.22,112.53a60.82,60.82,0,0,0-.62-7.48c9.48-8.93,19.21-26.83-12-51.79s-49.85-13.14-58.48-3C289,35,313.05,23,313.05,23c-18.17,3.3-22.95,13.29-23.76,21.13C279.83,35.88,267.37,43,267.37,43c12.46,0,18.26,4.44,20.86,7.78-26.88-5.05-77.24,46.37-43.7,72.16l5.82-3.33a27.74,27.74,0,0,0,1,2.73v0c3.95,42.28,27.46,52,27.46,52-10.2-7.65-17.53-42.59-19.6-50,2.76-1.54,4.26-4.61,9.55-10.58L265.25,124s8.06,4.78,25.48-21.43c-3.54,6.75-6.23,11.8-6.23,11.8s15.55-5.23,24.43-28c1.95,19.92,45.42,37.83,45.42,37.83s-.53-2.48-1.52-6.36a29.66,29.66,0,0,0,6.36,2.68c.48,8.88.72,24.9-3.31,31,0,0,10.49-2.64,11.36-30.54a14.33,14.33,0,0,0,2.92-.87S369.12,117,367.22,112.53Z" transform="translate(-208.32 -23)"/></g><g id="Calque_4" data-name="Calque 4"><path class="cls-5" d="M320.77,145.78a5.37,5.37,0,0,0-2,.39v1.5a4.07,4.07,0,0,1,2-.56,4,4,0,1,1,0,8,4.07,4.07,0,0,1-2-.56v1.5a5.35,5.35,0,1,0,2-10.31Z" transform="translate(-208.32 -23)"/><ellipse class="cls-6" cx="84.03" cy="116.35" rx="4.28" ry="5.71"/><ellipse class="cls-6" cx="126.15" cy="116.35" rx="4.28" ry="5.71"/></g><g id="Calque_6" data-name="Calque 6"><path class="cls-7" d="M293.07,165.76h45.68s-2.86,20-22.84,20S293.07,165.76,293.07,165.76Z" transform="translate(-208.32 -23)"/><g class="cls-8"><path class="cls-9" d="M295.92,182.89s22.84-14.27,40-2.85l-8.56,14.28-25.7-2.86Z" transform="translate(-208.32 -23)"/><path class="cls-10" d="M287.35,168.62l2.86,2.85s42.83,2.86,51.39-2.85l2.86-11.42h-60Z" transform="translate(-208.32 -23)"/></g></g><g id="Calque_8" data-name="Calque 8"><path class="cls-11" d="M373,285c19-17,19-33,19-33C369,269,373,285,373,285Z" transform="translate(-208.32 -23)"/></g><g id="Calque_13" data-name="Calque 13"><path class="cls-4" d="M252.78,303s-3.66,86-1.83,101l19.19,2s.92-89,1.83-90S252.78,303,252.78,303Z" transform="translate(-208.32 -23)"/><path class="cls-4" d="M485.84,223.26c-2.29-.7-14.93,8-14.93,8,1.44-3.07,16-23.11,13-24.55s-16.24,15.55-16.24,15.55c.69-2.29,13.06-21.52,11.51-23s-6.71,3.95-6.71,3.95c-6.59,8.49-12.48,14.7-12.48,14.7,2.17-3.84,7.75-22.14,7.75-22.14-.15-6-4.53.11-4.53.11-5.82,9.23-12.37,19.23-16,24.62-2.19,3.24-3.44,3-4.1,2.38-.4-.83-.79-1.61-1.15-2.29a9.06,9.06,0,0,1-1-2.9,16.1,16.1,0,0,0-5.73-10.14,1.28,1.28,0,0,0-1.21-.19c-1.1.39-2.25,1.43.16,6.67a17,17,0,0,1,.84,6c0,2.92,1,9,2.41,20.37h0a16.81,16.81,0,0,0,3.67,6.53c-6.32,7.13-16.47,22.74-24.71,36C411,274.79,382,253,382,253s-14,16-12,20,33,32,33,32l15,13c10.39,4.33,32-49.06,37.64-63.46a7.87,7.87,0,0,0,5.6-2.28,35.55,35.55,0,0,0,3.53-4.17h0a56.37,56.37,0,0,0,8.35-12,8.27,8.27,0,0,1,3-3.25C487.93,225.25,485.84,223.26,485.84,223.26Z" transform="translate(-208.32 -23)"/></g><g id="Calque_14" data-name="Calque 14"><path class="cls-12" d="M240,303s-2-72,43-87c0,0,34,19,45,0,0,0,31,6,64,36,0,0-21,26-19,33l-14-9s15,115,19,118c0,0-78,19-101,6,0,0-8.5-67.5-6.5-81.5C270.5,318.5,243.5,308.5,240,303Z" transform="translate(-208.32 -23)"/></g></svg>